<svg width="135" height="32" viewBox="0 0 135 32" fill="none" xmlns="http://www.w3.org/2000/svg">
<path d="M79.2095 0H4.60113C2.06 0 0 2.08944 0 4.66689V27.3331C0 29.9106 2.06 32 4.60113 32H79.2095C81.7506 32 83.8106 29.9106 83.8106 27.3331V4.66689C83.8106 2.08944 81.7506 0 79.2095 0Z" fill="white"/>
<path d="M88.5897 7.43732H98.7789V9.79799H94.8432V22.4592H92.5456V9.79799H88.5897V7.43732Z" fill="white"/>
<path d="M108.169 18.0813H100.217C100.377 18.8827 100.74 19.5052 101.306 19.9482C101.872 20.3919 102.575 20.6134 103.414 20.6134C104.546 20.6134 105.405 20.1701 105.991 19.283L107.769 20.399C106.797 21.9583 105.338 22.7382 103.394 22.7382C101.782 22.7382 100.47 22.2091 99.458 21.1503C98.4591 20.0773 97.9597 18.7254 97.9597 17.0945C97.9597 15.4635 98.4522 14.1691 99.4381 13.0817C100.41 11.9946 101.676 11.4508 103.234 11.4508C104.685 11.4508 105.884 12.0017 106.83 13.1032C107.775 14.205 108.248 15.5425 108.248 17.116C108.248 17.4024 108.221 17.724 108.168 18.0817L108.169 18.0813ZM100.197 16.1929H106.071C105.924 15.3489 105.595 14.6982 105.082 14.24C104.569 13.7822 103.946 13.5533 103.214 13.5533C102.415 13.5533 101.749 13.7892 101.216 14.2615C100.683 14.7334 100.343 15.3775 100.197 16.1929H100.197Z" fill="white"/>
<path d="M114.781 22.7382C113.276 22.7382 112.018 22.1946 111.005 21.1072C110.007 20.0057 109.507 18.6682 109.507 17.0945C109.507 15.5207 110.007 14.1546 111.005 13.0817C112.018 11.9946 113.276 11.4508 114.781 11.4508C115.753 11.4508 116.64 11.7012 117.439 12.2017C118.238 12.7025 118.837 13.3748 119.237 14.2188L117.379 15.3775C117.152 14.8625 116.809 14.4585 116.35 14.165C115.89 13.8719 115.361 13.725 114.761 13.725C113.882 13.725 113.143 14.0471 112.543 14.6908C111.957 15.3489 111.664 16.1499 111.664 17.0941C111.664 18.0383 111.957 18.8397 112.543 19.4975C113.143 20.1412 113.882 20.4632 114.761 20.4632C115.347 20.4632 115.877 20.3166 116.35 20.0232C116.822 19.7301 117.179 19.3257 117.418 18.8108L119.276 19.9482C118.85 20.8067 118.234 21.4864 117.429 21.9869C116.623 22.4874 115.74 22.7378 114.781 22.7378V22.7382Z" fill="white"/>
<path d="M126.069 11.4504C127.228 11.4504 128.157 11.8474 128.857 12.6413C129.556 13.4353 129.905 14.5119 129.905 15.8709V22.4588H127.748V16.1069C127.748 15.3059 127.548 14.6904 127.149 14.2615C126.749 13.8323 126.203 13.6178 125.51 13.6178C124.724 13.6178 124.105 13.879 123.652 14.401C123.199 14.9234 122.973 15.6924 122.973 16.7079V22.4592H120.815V7.43732H122.973V13.1025C123.639 12.001 124.671 11.4501 126.069 11.4501V11.4504Z" fill="white"/>
<path d="M133.501 19.4975C133.914 19.4975 134.267 19.6551 134.56 19.9694C134.853 20.2844 135 20.6635 135 21.1069C135 21.5503 134.853 21.9298 134.56 22.2444C134.267 22.559 133.914 22.7163 133.501 22.7163C133.089 22.7163 132.735 22.5587 132.443 22.2444C132.15 21.9298 132.003 21.5506 132.003 21.1069C132.003 20.6632 132.146 20.2844 132.433 19.9694C132.719 19.6548 133.075 19.4975 133.501 19.4975Z" fill="white"/>
<path d="M37.5036 22.7382C35.3989 22.7382 33.6544 21.9943 32.2691 20.5062C30.8839 18.9899 30.1913 17.1371 30.1913 14.9482C30.1913 12.7593 30.8836 10.8998 32.2691 9.41177C33.6408 7.90959 35.386 7.15866 37.5036 7.15866C38.7689 7.15866 39.9377 7.48068 41.0098 8.12438C42.0818 8.76807 42.9176 9.64101 43.5171 10.7425L41.5191 11.9872C41.146 11.2437 40.6031 10.6535 39.891 10.2168C39.1785 9.78051 38.3825 9.56236 37.5036 9.56236C36.0252 9.56236 34.813 10.0703 33.8675 11.0861C32.9485 12.0877 32.4889 13.3751 32.4889 14.9486C32.4889 16.522 32.9485 17.8101 33.8675 18.8114C34.813 19.8276 36.0252 20.3351 37.5036 20.3351C38.3828 20.3351 39.1818 20.1173 39.9009 19.6807C40.6201 19.2444 41.1596 18.6545 41.5191 17.9103L43.5171 19.1335C42.9441 20.2208 42.1117 21.1008 41.0197 21.7731C39.9675 22.4168 38.7954 22.7388 37.5036 22.7388V22.7382Z" fill="white"/>
<path d="M56.2634 11.4504C57.3955 11.4504 58.3078 11.844 59.0004 12.6306C59.6927 13.4175 60.0394 14.476 60.0394 15.8067V22.4592H57.8816V15.957C57.8816 15.2272 57.7083 14.6555 57.3623 14.2403C57.0157 13.8256 56.5431 13.6182 55.9439 13.6182C55.2646 13.6182 54.7317 13.8578 54.3456 14.3371C53.9592 14.8165 53.7663 15.521 53.7663 16.4508V22.4595H51.6086V15.9573C51.6086 15.2138 51.4452 14.6377 51.1191 14.2299C50.7927 13.8222 50.3301 13.6185 49.7306 13.6185C49.0644 13.6185 48.5282 13.8619 48.1223 14.3482C47.716 14.8346 47.5128 15.5358 47.5128 16.4511V22.4598H45.3551V11.7301H47.5128V13.0178C48.1521 11.9738 49.1042 11.4514 50.3698 11.4514C51.6354 11.4514 52.5942 12.0168 53.2069 13.1466C53.8594 12.0165 54.8782 11.4514 56.2637 11.4514L56.2634 11.4504Z" fill="white"/>
<path d="M70.2483 13.2531V7.43765H72.4061V22.4592H70.2483V20.914C69.4357 22.1301 68.2705 22.7382 66.7521 22.7382C65.3801 22.7382 64.2079 22.1946 63.2359 21.1072C62.2636 20.0202 61.7775 18.6824 61.7775 17.0945C61.7775 15.5066 62.2636 14.1691 63.2359 13.0817C64.2079 11.9946 65.3801 11.4508 66.7521 11.4508C68.2705 11.4508 69.4357 12.0518 70.2483 13.2535V13.2531ZM64.8343 19.562C65.4338 20.2057 66.1861 20.5277 67.0918 20.5277C67.9975 20.5277 68.7501 20.2057 69.3492 19.562C69.9484 18.9042 70.2483 18.0813 70.2483 17.0941C70.2483 16.1069 69.9487 15.2914 69.3492 14.6477C68.7497 13.9899 67.9971 13.6605 67.0918 13.6605C66.1864 13.6605 65.4335 13.9899 64.8343 14.6477C64.2348 15.2914 63.9352 16.1069 63.9352 17.0941C63.9352 18.0813 64.2348 18.8898 64.8343 19.562Z" fill="white"/>
<path d="M19.2486 9.99631C19.2462 9.94219 19.2419 9.88875 19.2366 9.83564C19.0888 8.39093 17.8812 7.26085 16.4184 7.26085C14.8562 7.26085 13.585 8.54992 13.585 10.1348C13.585 11.7197 14.8562 13.0087 16.4184 13.0087C17.118 13.0087 17.7596 12.7499 18.2544 12.322C18.832 11.8225 19.2101 11.0921 19.2486 10.2733C19.2509 10.2276 19.2519 10.1812 19.2519 10.1348C19.2519 10.0884 19.2509 10.042 19.2486 9.99631ZM18.2544 10.2464C18.1974 11.2232 17.3957 12.0003 16.4184 12.0003C15.4411 12.0003 14.5792 11.1634 14.5792 10.1348C14.5792 9.10623 15.4043 8.26925 16.4184 8.26925C17.4325 8.26925 18.1974 9.0464 18.2544 10.0232C18.2567 10.0602 18.2577 10.0972 18.2577 10.1348C18.2577 10.1724 18.2567 10.2094 18.2544 10.2464Z" fill="white"/>
<path d="M21.0911 19.2272C20.3882 19.2272 19.744 19.4884 19.2486 19.9197C18.7061 20.3916 18.3412 21.0672 18.2703 21.8289C18.262 21.9187 18.2577 22.0094 18.2577 22.1012C18.2577 23.6857 19.5289 24.9751 21.0911 24.9751C22.6534 24.9751 23.9246 23.6857 23.9246 22.1012C23.9246 20.5166 22.6537 19.2272 21.0911 19.2272ZM21.0911 23.9667C20.0771 23.9667 19.2519 23.1298 19.2519 22.1012C19.2519 21.0726 20.0771 20.2356 21.0911 20.2356C22.1052 20.2356 22.9304 21.0726 22.9304 22.1012C22.9304 23.1298 22.1056 23.9667 21.0911 23.9667Z" fill="white"/>
<path d="M14.9931 16.3365C14.4728 15.7197 13.7003 15.3281 12.8393 15.3281C11.2771 15.3281 10.0059 16.6172 10.0059 18.202C10.0059 19.7869 11.2771 21.076 12.8393 21.076C14.4015 21.076 15.6728 19.7866 15.6728 18.202C15.6728 17.4908 15.4166 16.8387 14.9931 16.3365ZM12.8393 20.0676C11.8252 20.0676 11.0001 19.2306 11.0001 18.202C11.0001 17.1735 11.8252 16.3365 12.8393 16.3365C13.8534 16.3365 14.6786 17.1735 14.6786 18.202C14.6786 19.2306 13.8537 20.0676 12.8393 20.0676Z" fill="white"/>
<path d="M24.1069 10.5886C22.5447 10.5886 21.2734 11.8777 21.2734 13.4625C21.2734 14.1738 21.5296 14.8259 21.9531 15.3281C22.4734 15.9449 23.2459 16.3365 24.1069 16.3365C24.2974 16.3365 24.4834 16.3173 24.6633 16.2807C25.9604 16.0178 26.9403 14.8538 26.9403 13.4625C26.9403 11.8777 25.6694 10.5886 24.1069 10.5886ZM24.1069 15.3281C23.0928 15.3281 22.2676 14.4911 22.2676 13.4625C22.2676 12.434 23.0928 11.597 24.1069 11.597C25.121 11.597 25.9462 12.434 25.9462 13.4625C25.9462 14.4911 25.1213 15.3281 24.1069 15.3281Z" fill="white"/>
<path d="M24.6633 15.3281H12.8394V16.3365H24.6633V15.3281Z" fill="white"/>
<path d="M19.2486 9.83563H18.2544V21.8289H19.2486V9.83563Z" fill="white"/>
</svg>
