<svg width="28" height="28" viewBox="0 0 28 28" fill="none" xmlns="http://www.w3.org/2000/svg">
<mask id="mask0_1_551" style="mask-type:luminance" maskUnits="userSpaceOnUse" x="0" y="0" width="28" height="28">
<path d="M27.4701 14.06C27.4701 6.69802 21.502 0.72998 14.1401 0.72998C6.7781 0.72998 0.810059 6.69802 0.810059 14.06C0.810059 21.4219 6.7781 27.39 14.1401 27.39C21.502 27.39 27.4701 21.4219 27.4701 14.06Z" fill="white"/>
</mask>
<g mask="url(#mask0_1_551)">
<path d="M27.4701 14.06C27.4701 6.69802 21.502 0.72998 14.1401 0.72998C6.7781 0.72998 0.810059 6.69802 0.810059 14.06C0.810059 21.4219 6.7781 27.39 14.1401 27.39C21.502 27.39 27.4701 21.4219 27.4701 14.06Z" fill="#161616"/>
<path d="M13.7161 6.95239C10.9915 6.95239 9.01331 8.57599 9.01331 11.114H10.9542C11.0101 9.78902 11.8126 8.55732 13.6788 8.55732C15.0225 8.55732 16.0116 9.22916 16.0116 10.3489C16.0116 11.5246 15.2464 12.1964 14.2013 12.8496C12.7457 13.7454 11.9992 14.5292 11.9992 16.1528V16.7873H13.9587V16.2087C13.9587 15.089 14.4439 14.7531 15.5823 14.0066C16.7767 13.2601 18.0271 11.9911 18.0271 10.2556C18.0271 7.9788 15.8809 6.95239 13.7161 6.95239ZM14.164 20.7249V18.3922H11.8313V20.7249H14.164Z" fill="white"/>
</g>
</svg>
